# xmcd
#
# Track frame offsets: 
#        150
#        18376
#        32944
#        48705
#        64014
#        78750
#        92770
#        111166
#        124932
#        140671
#
# Disc length: 2073 seconds
#
# Revision: 4
# Processed by: cddbd v1.5.2PL0 Copyright (c) Steve Scherf et al.
# Submitted via: ExactAudioCopy v0.99pb5
#
DISCID=8808170a
DTITLE=Mielavs un Paarceelaaji - Bezgaliiga leenaa deja
DYEAR=2008
DGENRE=Jazz
TTITLE0=Iemuureetais circeniitis
TTITLE1=Par pieciiti un Morzes signaaliem
TTITLE2=Saules pavediens
TTITLE3=Latvieshi, kas turas kopaa
TTITLE4=Pirmais
TTITLE5=Mans iemesis
TTITLE6=Es redzeeju
TTITLE7=Divduujinjas
TTITLE8=Bezgaliiga leenaa deja
TTITLE9=Kaa veel man nebuutu gana?
EXTD=YEAR: 2008
EXTT0=
EXTT1=
EXTT2=
EXTT3=
EXTT4=
EXTT5=
EXTT6=
EXTT7=
EXTT8=
EXTT9=
PLAYORDER=
